<svg width="132" height="132" viewBox="0 0 132 132" fill="none" xmlns="http://www.w3.org/2000/svg">
<path d="M18.8985 18.8983C29.336 8.46089 46.2323 8.435 56.6376 18.8403C59.8973 22.1 62.133 25.9965 63.3455 30.1319C66.1353 39.6463 67.4973 50.4796 74.5082 57.4905V57.4905C81.5192 64.5015 92.3527 65.8635 101.867 68.6535C106.003 69.8663 109.899 72.1022 113.159 75.3619C123.564 85.7673 123.539 102.664 113.101 113.101C102.664 123.538 85.7674 123.564 75.3621 113.159C72.1026 109.899 69.8668 106.003 68.654 101.868C65.8637 92.3528 64.5015 81.5188 57.4902 74.5075V74.5075C50.4791 67.4965 39.6456 66.1345 30.1311 63.3446C25.996 62.1322 22.0999 59.8968 18.8405 56.6374C8.43524 46.2321 8.46122 29.3358 18.8985 18.8983Z" fill="#202020"/>
<circle cx="30.8383" cy="101.536" r="20.1479" fill="#202020"/>
<circle cx="101.562" cy="30.8129" r="20.1479" fill="#202020"/>
</svg>
