<svg width="244" height="72" viewBox="0 0 244 72" fill="none" xmlns="http://www.w3.org/2000/svg">
<path d="M40.9917 30.1603C36.4887 25.6449 35.6138 18.6677 33.8221 12.5399C33.0432 9.87579 31.6069 7.3655 29.5128 5.26565C22.8292 -1.43638 11.9764 -1.41961 5.27218 5.3031C-1.43199 12.0258 -1.44871 22.9087 5.23483 29.6107C7.32887 31.7106 9.83219 33.1508 12.489 33.932C18.5998 35.7286 25.5578 36.606 30.0608 41.1214C34.5637 45.6368 35.4387 52.614 37.2304 58.7418C38.0094 61.4059 39.4457 63.9161 41.5397 66.016C48.2232 72.718 59.0761 72.7012 65.7803 65.9785C72.4845 59.2558 72.5012 48.3729 65.8176 41.6709C63.7236 39.571 61.2202 38.1307 58.5634 37.3496C52.4526 35.553 45.4946 34.6756 40.9917 30.1603Z" fill="white"/>
<path d="M25.8827 58.5296C25.8827 65.6966 20.0887 71.5067 12.9414 71.5067C5.79404 71.5067 0 65.6966 0 58.5296C0 51.3625 5.79404 45.5524 12.9414 45.5524C20.0887 45.5524 25.8827 51.3625 25.8827 58.5296Z" fill="white"/>
<path d="M71.3095 12.9771C71.3095 20.1442 65.5155 25.9543 58.3682 25.9543C51.2209 25.9543 45.4268 20.1442 45.4268 12.9771C45.4268 5.81006 51.2209 0 58.3682 0C65.5155 0 71.3095 5.81006 71.3095 12.9771Z" fill="white"/>
<path d="M104.19 23.0166V71.7102H92.5321V4.08016H105.154L132.42 51.4212V4.08016H144.078V71.7102H132.324L104.19 23.0166Z" fill="white"/>
<path d="M198.127 49.7787H161.419C162.767 56.3485 168.067 61.1792 174.329 61.1792C179.05 61.1792 183.193 58.474 185.506 54.3196H197.164C194.081 64.5607 185.024 72 174.329 72C161.033 72 150.339 60.5029 150.339 46.3972C150.339 32.2915 161.033 20.7944 174.329 20.7944C185.024 20.7944 194.081 28.2337 197.164 38.4748C197.934 40.9868 198.32 43.5954 198.32 46.3972C198.32 47.5566 198.32 48.6193 198.127 49.7787ZM163.153 38.4748H185.506C183.193 34.3204 179.05 31.6152 174.329 31.6152C169.608 31.6152 165.465 34.3204 163.153 38.4748Z" fill="white"/>
<path d="M244 20.0215L226.946 45.9141L244 71.7102H230.511L220.202 56.0586L209.797 71.7102H196.404L213.458 45.9141L196.404 20.0215H209.797L220.202 35.673L230.511 20.0215H244Z" fill="white"/>
</svg>
